<svg width="78" height="78" viewBox="0 0 78 78" fill="none" xmlns="http://www.w3.org/2000/svg">
<path d="M39 0C17.4956 0 0 17.4956 0 39C0 60.5044 17.4956 78 39 78C60.5044 78 78 60.5044 78 39C78 17.4956 60.5044 0 39 0ZM29.5837 21.9038C31.9594 19.3856 35.3025 18 39 18C42.6975 18 46.0106 19.395 48.3956 21.9263C50.8125 24.4913 51.9881 27.9375 51.7106 31.6425C51.1556 39 45.4556 45 39 45C32.5444 45 26.8331 39 26.2894 31.6406C26.0138 27.9056 27.1875 24.4481 29.5837 21.9038ZM39 72C34.5946 72.0029 30.2335 71.1212 26.1753 69.4071C22.1171 67.6929 18.4444 65.1814 15.375 62.0212C17.1329 59.5143 19.3728 57.3828 21.9637 55.7513C26.7431 52.6875 32.7919 51 39 51C45.2081 51 51.2569 52.6875 56.0306 55.7513C58.6237 57.382 60.8656 59.5136 62.625 62.0212C59.5559 65.1817 55.8832 67.6935 51.825 69.4076C47.7667 71.1218 43.4054 72.0033 39 72Z" fill="#999DA1"/>
</svg>
