<svg width="79" height="80" viewBox="0 0 79 80" fill="none" xmlns="http://www.w3.org/2000/svg">
<path d="M40.5435 0.999718C18.6097 0.703468 0.703468 18.6097 0.999718 40.5435C1.29222 61.5791 18.4203 78.7072 39.456 78.9997C61.3935 79.2997 79.296 61.3935 78.996 39.4597C78.7072 18.4203 61.5791 1.29222 40.5435 0.999718ZM39.8535 29.5203C39.8928 29.2953 39.936 29.0703 39.9866 28.8472C40.4602 26.6575 41.5153 24.6359 43.041 22.9953C45.4578 20.421 48.8835 18.9997 52.6878 18.9997C54.2884 18.9931 55.8781 19.2634 57.3866 19.7985C59.2617 20.4661 60.9504 21.5718 62.3122 23.0235C64.3155 25.1887 65.5079 27.9804 65.6872 30.9247C65.739 31.6363 65.739 32.3507 65.6872 33.0622C65.5428 35.0788 65.0213 37.0504 64.1497 38.8747C64.0547 39.0735 63.9553 39.2703 63.8516 39.4653C63.6435 39.8535 63.4203 40.2341 63.1803 40.6016C62.7026 41.3353 62.1611 42.0255 61.5622 42.6641C59.1022 45.2891 55.9522 46.7385 52.6916 46.7385C51.4689 46.7377 50.2547 46.5362 49.0972 46.1422C48.7084 46.0102 48.3266 45.8581 47.9535 45.6866C46.3908 44.9576 44.9852 43.9309 43.8153 42.6641C41.3802 40.0228 39.9243 36.6265 39.6903 33.0416C39.6566 32.5566 39.6453 32.0766 39.6566 31.6016C39.6711 30.9052 39.7369 30.2108 39.8535 29.5241V29.5203ZM11.7791 34.0841C11.8703 32.7462 12.2006 31.4355 12.7541 30.2141C12.9102 29.8739 13.0842 29.5422 13.2753 29.2203C13.6576 28.5752 14.1097 27.9741 14.6235 27.4278C15.3846 26.6159 16.2708 25.9309 17.2485 25.3991C17.7367 25.1322 18.2452 24.904 18.7691 24.7166C20.7767 24.0144 22.935 23.8598 25.0222 24.2685C27.2338 24.6962 29.2537 25.8118 30.7935 27.456C32.6206 29.4283 33.6503 32.0088 33.6828 34.6972C33.6922 35.0928 33.6828 35.4903 33.6547 35.8935C33.5403 37.4372 33.1597 38.9495 32.5297 40.3635C32.2281 41.0442 31.8686 41.6979 31.4553 42.3172C30.6605 43.5184 29.6602 44.5701 28.5003 45.4241C28.2191 45.6247 27.9266 45.8122 27.6247 45.9997C27.031 46.3533 26.4027 46.6455 25.7497 46.8716C24.7733 47.2128 23.7465 47.3877 22.7122 47.3891C22.5378 47.3891 22.3635 47.3891 22.191 47.3741C21.8465 47.3552 21.5034 47.3164 21.1635 47.2578C20.8252 47.199 20.4904 47.122 20.1603 47.0272C19.6646 46.8841 19.1807 46.7029 18.7128 46.4853C18.5553 46.4122 18.4016 46.3353 18.2478 46.2547C14.8728 44.4753 12.3285 40.7872 11.8297 36.4822C11.8072 36.2853 11.7885 36.0885 11.7753 35.8897C11.733 35.2885 11.7343 34.6851 11.7791 34.0841ZM21.8891 67.5716C16.8968 64.2809 12.8846 59.7046 10.2753 54.3247C10.1901 54.1527 10.1741 53.9545 10.2306 53.771C10.2871 53.5876 10.4119 53.4327 10.5791 53.3385C14.0628 51.3791 18.5122 50.3122 22.716 50.3122C25.9035 50.3122 28.4722 50.6872 30.7203 51.4147C30.9752 51.4986 31.2029 51.6493 31.3797 51.8512C31.5565 52.053 31.6759 52.2986 31.7255 52.5623C31.7751 52.826 31.7531 53.0981 31.6617 53.3504C31.5703 53.6027 31.4129 53.8258 31.206 53.9966C26.8278 57.5591 24.006 61.9728 22.6803 67.2622C22.6605 67.3431 22.6215 67.4181 22.5666 67.4807C22.5118 67.5434 22.4426 67.592 22.365 67.6223C22.2874 67.6526 22.2037 67.6639 22.1209 67.655C22.038 67.6462 21.9585 67.6176 21.8891 67.5716ZM39.9997 72.9997C35.7783 73.004 31.5957 72.1942 27.681 70.6147C27.521 70.5487 27.3888 70.4293 27.3068 70.2769C27.2247 70.1245 27.198 69.9484 27.231 69.7785C27.306 69.3941 27.3885 69.0435 27.4616 68.751C28.7966 63.4203 32.1041 59.001 37.0241 55.9672C41.391 53.2766 46.9616 51.7953 52.6841 51.7953C58.5266 51.7953 63.9341 53.2166 68.3366 55.9035C68.4487 55.9736 68.5292 56.0846 68.561 56.213C68.5929 56.3414 68.5736 56.4771 68.5072 56.5916C65.6039 61.5794 61.4439 65.7191 56.442 68.5981C51.4401 71.477 45.771 72.9947 39.9997 72.9997Z" fill="#999DA1"/>
</svg>
